<svg width="33" height="27" viewBox="0 0 33 27" fill="none" xmlns="http://www.w3.org/2000/svg">
<path d="M5.83123 0.0932007H0V2.15585H4.48156L11.7007 18.6559H28.8748V16.5937H13.0501L5.83123 0.0932007Z" fill="white"/>
<path d="M10.3127 4.21838L14.438 14.5314H28.8747L32.9999 4.21838H10.3127ZM27.4809 12.4687H15.8349L13.3595 6.28097H29.9546L27.4809 12.4687Z" fill="white"/>
<path d="M15.4693 20.7189C13.7603 20.7189 12.3755 22.1045 12.3755 23.8128C12.3755 25.5206 13.7602 26.9068 15.4693 26.9068C17.1771 26.9068 18.5623 25.5206 18.5623 23.8128C18.5623 22.1045 17.1771 20.7189 15.4693 20.7189ZM15.4693 24.8439C14.9005 24.8439 14.4381 24.3807 14.4381 23.8129C14.4381 23.2447 14.9004 22.7816 15.4693 22.7816C16.0383 22.7816 16.5007 23.2448 16.5007 23.8129C16.5006 24.3807 16.0383 24.8439 15.4693 24.8439Z" fill="white"/>
<path d="M25.7812 20.7189C24.0732 20.7189 22.6873 22.1045 22.6873 23.8128C22.6873 25.5206 24.0732 26.9068 25.7812 26.9068C27.4892 26.9068 28.8748 25.5206 28.8748 23.8128C28.8748 22.1045 27.4892 20.7189 25.7812 20.7189ZM25.7812 24.8439C25.2133 24.8439 24.7503 24.3807 24.7503 23.8129C24.7503 23.2447 25.2134 22.7816 25.7812 22.7816C26.3488 22.7816 26.8125 23.2448 26.8125 23.8129C26.8125 24.3807 26.3494 24.8439 25.7812 24.8439Z" fill="white"/>
</svg>
