<svg width="83" height="83" viewBox="0 0 83 83" fill="none" xmlns="http://www.w3.org/2000/svg">
<g clip-path="url(#clip0)">
<path d="M41.4989 56.8813C39.1785 56.8813 37.2334 58.8264 37.2334 61.1468C37.2334 63.4673 39.1785 65.4123 41.4989 65.4123C43.734 65.4123 45.7644 63.4673 45.662 61.2492C45.7644 58.8093 43.8364 56.8813 41.4989 56.8813Z" fill="#A4C700"/>
<path d="M80.9802 71.9982C83.6589 67.3744 83.676 61.8634 81.0143 57.2566L54.2954 10.9847C51.6508 6.32678 46.8734 3.56274 41.516 3.56274C36.1585 3.56274 31.3812 6.34384 28.7366 10.9676L1.98346 57.2908C-0.678207 61.9487 -0.661145 67.4938 2.03464 72.1176C4.6963 76.6902 9.45658 79.4372 14.7799 79.4372H68.1496C73.49 79.4372 78.2844 76.6561 80.9802 71.9982ZM75.1792 68.654C73.6948 71.2133 71.0672 72.7318 68.1326 72.7318H14.7628C11.8623 72.7318 9.25184 71.2474 7.80157 68.7393C6.33425 66.1971 6.31719 63.1601 7.78451 60.6008L34.5376 14.2947C35.9879 11.7525 38.5813 10.251 41.516 10.251C44.4335 10.251 47.044 11.7695 48.4943 14.3118L75.2303 60.6179C76.6635 63.1089 76.6465 66.1118 75.1792 68.654Z" fill="#A4C700"/>
<path d="M40.4411 26.9376C38.4107 27.5177 37.1481 29.3604 37.1481 31.5955C37.2505 32.9434 37.3358 34.3083 37.4382 35.6562C37.7282 40.7918 38.0183 45.8251 38.3083 50.9608C38.4107 52.7011 39.7586 53.9637 41.4989 53.9637C43.2392 53.9637 44.6042 52.6158 44.6895 50.8584C44.6895 49.8006 44.6895 48.828 44.7918 47.7531C44.9795 44.4602 45.1843 41.1672 45.372 37.8743C45.4743 35.7415 45.662 33.6088 45.7644 31.476C45.7644 30.7082 45.662 30.0258 45.372 29.3433C44.5018 27.4324 42.4714 26.4598 40.4411 26.9376Z" fill="#A4C700"/>
</g>
<defs>
<clipPath id="clip0">
<rect width="83" height="83" fill="white"/>
</clipPath>
</defs>
</svg>
